<?xml version="1.0" encoding="UTF-8" standalone="no"?>
<svg
   xmlns:dc="http://purl.org/dc/elements/1.1/"
   xmlns:cc="http://creativecommons.org/ns#"
   xmlns:rdf="http://www.w3.org/1999/02/22-rdf-syntax-ns#"
   xmlns:svg="http://www.w3.org/2000/svg"
   xmlns="http://www.w3.org/2000/svg"
   xmlns:sodipodi="http://sodipodi.sourceforge.net/DTD/sodipodi-0.dtd"
   xmlns:inkscape="http://www.inkscape.org/namespaces/inkscape"
   width="111.529"
   height="22"
   viewBox="0 0 29.508714 5.8208335"
   version="1.1"
   id="svg8"
   inkscape:version="1.0 (4035a4fb49, 2020-05-01)"
   sodipodi:docname="pr0ton-logo-dark.svg">
  <defs
     id="defs2">
    <rect
       x="-0.68035251"
       y="122.42649"
       width="58.283909"
       height="27.327675"
       id="rect35" />
  </defs>
  <sodipodi:namedview
     id="base"
     pagecolor="#ffffff"
     bordercolor="#666666"
     borderopacity="1.0"
     inkscape:pageopacity="0.0"
     inkscape:pageshadow="2"
     inkscape:zoom="0.35"
     inkscape:cx="1207.9638"
     inkscape:cy="1270.1287"
     inkscape:document-units="px"
     inkscape:current-layer="g86"
     inkscape:document-rotation="0"
     showgrid="false"
     inkscape:snap-bbox="true"
     inkscape:bbox-paths="true"
     inkscape:bbox-nodes="true"
     inkscape:snap-bbox-edge-midpoints="true"
     inkscape:snap-bbox-midpoints="true"
     inkscape:object-paths="true"
     inkscape:snap-intersection-paths="true"
     inkscape:snap-smooth-nodes="true"
     inkscape:snap-midpoints="true"
     inkscape:snap-object-midpoints="true"
     inkscape:snap-center="true"
     inkscape:snap-text-baseline="true"
     inkscape:snap-page="true"
     units="px"
     inkscape:pagecheckerboard="false"
     inkscape:window-width="2560"
     inkscape:window-height="1376"
     inkscape:window-x="0"
     inkscape:window-y="38"
     inkscape:window-maximized="1" />
  <metadata
     id="metadata5">
    <rdf:RDF>
      <cc:Work
         rdf:about="">
        <dc:format>image/svg+xml</dc:format>
        <dc:type
           rdf:resource="http://purl.org/dc/dcmitype/StillImage" />
        <dc:title />
      </cc:Work>
    </rdf:RDF>
  </metadata>
  <g
     inkscape:label="Layer 1"
     inkscape:groupmode="layer"
     id="layer1">
    <g
       id="g64"
       transform="translate(-3.9744199,218.49435)">
      <g
         id="g86">
        <rect
           style="stroke-width:0.264583"
           id="pr0gramm-logo-background"
           fill="#d23c22"
           x="3.9744198"
           y="-218.49435"
           width="5.8208332"
           height="5.8208332"
           rx="0.52916664" />
        <g
           id="pr0gramm-logo-sign"
           transform="matrix(0.26458333,0,0,0.26458333,4.7681698,-217.43602)"
           fill="#ffffff">
          <rect
             x="8"
             y="10"
             width="7"
             height="2"
             rx="1"
             id="rect12" />
          <path
             d="M 2,9.7 C 2.4,9.3 2.9,9 3.3,8.6 3.8,8.2 4.2,7.8 4.7,7.5 5.1,7.1 5.5,6.8 5.8,6.5 5.5,6.3 5.2,6 4.7,5.6 4.3,5.2 3.9,4.8 3.4,4.4 2.9,4 2.5,3.7 2,3.3 1.6,2.9 1.2,2.6 1,2.4 0.7,2.1 0.6,1.8 0.6,1.5 0.6,1.2 0.7,0.9 0.9,0.7 1.1,0.5 1.3,0.4 1.6,0.4 1.8,0.4 1.9,0.5 2.2,0.6 2.2,0.6 2.4,0.8 2.7,1 3,1.3 3.4,1.6 3.8,2 4.2,2.3 4.6,2.7 5.1,3.1 5.6,3.5 6,3.9 6.4,4.2 6.8,4.5 7.2,4.8 7.5,5.1 7.8,5.4 8,5.5 8.1,5.6 8.4,5.9 8.5,6.2 8.5,6.6 8.5,6.9 8.4,7.2 8.1,7.5 7.7,7.8 7.2,8.2 6.7,8.6 6.2,9 5.7,9.5 5.1,9.9 4.6,10.3 4.1,10.8 3.5,11.2 3,11.6 2.6,12 2.1,12.3 1.9,12.4 1.7,12.5 1.5,12.5 1.2,12.5 1,12.4 0.8,12.2 0.6,12 0.5,11.8 0.5,11.5 0.5,11.2 0.6,10.9 0.8,10.6 1.1,10.3 1.5,10 2,9.7 Z"
             id="path14" />
        </g>
        <path
           id="path39"
           style="font-style:normal;font-variant:normal;font-weight:normal;font-stretch:normal;font-size:10.5833px;line-height:1.25;font-family:'Casper Bold';-inkscape-font-specification:'Casper Bold, ';white-space:pre;fill:#1c1d1f;fill-opacity:1;stroke:none;stroke-width:0.547425"
           d="m 11.740019,-213.49669 v -4.02653 h 1.992987 q 0.283884,0 0.50404,0.0927 0.220156,0.0927 0.364995,0.26071 0.144839,0.16222 0.220155,0.39396 0.07532,0.22595 0.07532,0.50404 0,0.27809 -0.07532,0.52142 -0.06952,0.24333 -0.214362,0.42293 -0.139045,0.17381 -0.359201,0.27809 -0.220155,0.0985 -0.515627,0.0985 h -1.338314 v 1.45419 z m 0.654673,-3.424 v 1.3557 h 1.112365 q 0.382375,0 0.556182,-0.16802 0.179601,-0.17381 0.179601,-0.5388 0,-0.34761 -0.191188,-0.49825 -0.185394,-0.15063 -0.544595,-0.15063 z" />
        <path
           id="path41"
           style="font-style:normal;font-variant:normal;font-weight:normal;font-stretch:normal;font-size:10.5833px;line-height:1.25;font-family:'Casper Bold';-inkscape-font-specification:'Casper Bold, ';white-space:pre;fill:#1c1d1f;fill-opacity:1;stroke:none;stroke-width:0.547425"
           d="m 16.676127,-214.99722 q -0.06373,-0.0811 -0.16222,-0.11587 -0.09849,-0.0348 -0.196981,-0.0348 H 15.93455 v 1.65116 h -0.654673 v -4.02653 h 1.90029 q 0.254917,0 0.469279,0.0811 0.214362,0.0811 0.364994,0.23753 0.156427,0.15064 0.24333,0.365 0.0869,0.20857 0.0869,0.46928 0,0.52142 -0.266504,0.85745 -0.260711,0.33023 -0.74737,0.365 l 0.76475,0.96752 q 0.0927,0.11587 0.168014,0.15063 0.07532,0.0348 0.220155,0.0348 v 0.49825 q -0.05794,0.029 -0.139045,0.0464 -0.08111,0.0232 -0.150633,0.0232 -0.173807,0 -0.312853,-0.11587 -0.139045,-0.12167 -0.237536,-0.24913 z m -0.741577,-0.75317 h 1.083397 q 0.370788,0 0.521421,-0.13325 0.150633,-0.13904 0.150633,-0.48666 0,-0.27809 -0.139046,-0.41134 -0.133252,-0.13905 -0.463485,-0.13905 h -1.15292 z" />
        <path
           id="path43"
           style="font-style:normal;font-variant:normal;font-weight:normal;font-stretch:normal;font-size:10.5833px;line-height:1.25;font-family:'Casper Bold';-inkscape-font-specification:'Casper Bold, ';white-space:pre;fill:#1c1d1f;fill-opacity:1;stroke:none;stroke-width:0.547425"
           d="m 21.142964,-215.50127 q 0,-0.20277 -0.02317,-0.4461 -0.01738,-0.24333 -0.0927,-0.4519 -0.07532,-0.21436 -0.231743,-0.3534 -0.150632,-0.14484 -0.411343,-0.14484 -0.26071,0 -0.417136,0.13904 -0.150633,0.13325 -0.231743,0.34182 -0.07532,0.20857 -0.09849,0.45769 -0.02317,0.24333 -0.02317,0.45769 0,0.20857 0.01738,0.46349 0.02317,0.25492 0.09849,0.47507 0.08111,0.21437 0.231742,0.365 0.150633,0.14484 0.417138,0.14484 0.266504,0 0.417136,-0.14484 0.150633,-0.15063 0.225949,-0.365 0.08111,-0.22015 0.09849,-0.46928 0.02317,-0.25491 0.02317,-0.46928 z m -0.764751,-2.02195 q 0.295472,0 0.515627,0.0927 0.220156,0.0869 0.376582,0.23753 0.156427,0.15064 0.254917,0.35341 0.09849,0.20278 0.150633,0.42873 0.05794,0.22015 0.07532,0.45769 0.02317,0.23174 0.02317,0.45189 0,0.33024 -0.05214,0.70103 -0.05214,0.36499 -0.208568,0.67205 -0.150633,0.30127 -0.428725,0.50404 -0.272297,0.19698 -0.718402,0.19698 -0.446104,0 -0.718402,-0.20277 -0.272298,-0.20278 -0.42293,-0.50984 -0.150633,-0.30705 -0.202775,-0.67205 -0.04635,-0.36499 -0.04635,-0.68944 0,-0.33602 0.05214,-0.68943 0.05214,-0.3592 0.202775,-0.65467 0.150632,-0.29547 0.42293,-0.48666 0.278091,-0.19119 0.724196,-0.19119 z" />
        <path
           id="path45"
           style="font-style:normal;font-variant:normal;font-weight:normal;font-stretch:normal;font-size:10.5833px;line-height:1.25;font-family:'Casper Bold';-inkscape-font-specification:'Casper Bold, ';white-space:pre;fill:#1c1d1f;fill-opacity:1;stroke:none;stroke-width:0.547425"
           d="m 24.033947,-216.91489 v 3.4182 h -0.654674 v -3.4182 h -1.274584 v -0.60833 h 3.267571 l -0.191187,0.60833 z" />
        <path
           id="path47"
           style="font-style:normal;font-variant:normal;font-weight:normal;font-stretch:normal;font-size:10.5833px;line-height:1.25;font-family:'Casper Bold';-inkscape-font-specification:'Casper Bold, ';white-space:pre;fill:#1c1d1f;fill-opacity:1;stroke:none;stroke-width:0.547425"
           d="m 27.625952,-213.42716 q -0.48666,0 -0.857448,-0.15064 -0.364995,-0.15643 -0.608325,-0.43452 -0.243329,-0.27809 -0.370788,-0.66046 -0.121664,-0.38238 -0.121664,-0.84007 v -0.15643 q 0,-0.42293 0.144838,-0.77633 0.14484,-0.35921 0.40555,-0.60833 0.260711,-0.25491 0.619912,-0.39396 0.359201,-0.14484 0.787925,-0.14484 0.428724,0 0.787925,0.14484 0.359201,0.13905 0.614118,0.39396 0.26071,0.24912 0.405549,0.60833 0.14484,0.3534 0.14484,0.77633 v 0.15643 q 0,0.45769 -0.121665,0.84007 -0.121665,0.38237 -0.370789,0.66046 -0.243329,0.27809 -0.608324,0.43452 -0.364995,0.15064 -0.851654,0.15064 z m 0,-3.55726 q -0.637292,0 -0.961732,0.3592 -0.318646,0.35921 -0.318646,0.96753 v 0.13325 q 0,0.31865 0.06373,0.59095 0.06373,0.27229 0.214362,0.47507 0.150633,0.19698 0.388169,0.31285 0.24333,0.11008 0.602531,0.11008 0.370788,0 0.614118,-0.10429 0.249123,-0.11007 0.393963,-0.30705 0.150632,-0.19699 0.214361,-0.46928 0.06373,-0.27809 0.06373,-0.60833 v -0.13325 q 0,-0.60832 -0.32444,-0.96753 -0.318646,-0.3592 -0.950145,-0.3592 z" />
        <path
           id="path49"
           style="font-style:normal;font-variant:normal;font-weight:normal;font-stretch:normal;font-size:10.5833px;line-height:1.25;font-family:'Casper Bold';-inkscape-font-specification:'Casper Bold, ';white-space:pre;fill:#1c1d1f;fill-opacity:1;stroke:none;stroke-width:0.547425"
           d="m 30.151937,-213.49669 v -4.02653 h 0.799512 l 1.877115,3.01845 v -3.01845 h 0.654673 v 4.02653 h -0.770544 l -1.906083,-3.08797 v 3.08797 z" />
      </g>
    </g>
  </g>
</svg>
