<?xml version="1.0" encoding="UTF-8" standalone="no"?>
<svg
   xmlns:dc="http://purl.org/dc/elements/1.1/"
   xmlns:cc="http://creativecommons.org/ns#"
   xmlns:rdf="http://www.w3.org/1999/02/22-rdf-syntax-ns#"
   xmlns:svg="http://www.w3.org/2000/svg"
   xmlns="http://www.w3.org/2000/svg"
   xmlns:sodipodi="http://sodipodi.sourceforge.net/DTD/sodipodi-0.dtd"
   xmlns:inkscape="http://www.inkscape.org/namespaces/inkscape"
   width="111.529"
   height="22"
   viewBox="0 0 29.508714 5.8208335"
   version="1.1"
   id="svg8"
   inkscape:version="1.0 (4035a4fb49, 2020-05-01)"
   sodipodi:docname="pr0ton-logo-bright.svg">
  <defs
     id="defs2">
    <rect
       x="-0.68035251"
       y="122.42649"
       width="58.283909"
       height="27.327675"
       id="rect35" />
  </defs>
  <sodipodi:namedview
     id="base"
     pagecolor="#ffffff"
     bordercolor="#666666"
     borderopacity="1.0"
     inkscape:pageopacity="0.0"
     inkscape:pageshadow="2"
     inkscape:zoom="5.6"
     inkscape:cx="147.94254"
     inkscape:cy="1096.5217"
     inkscape:document-units="px"
     inkscape:current-layer="g64"
     inkscape:document-rotation="0"
     showgrid="false"
     inkscape:snap-bbox="true"
     inkscape:bbox-paths="true"
     inkscape:bbox-nodes="true"
     inkscape:snap-bbox-edge-midpoints="true"
     inkscape:snap-bbox-midpoints="true"
     inkscape:object-paths="true"
     inkscape:snap-intersection-paths="true"
     inkscape:snap-smooth-nodes="true"
     inkscape:snap-midpoints="true"
     inkscape:snap-object-midpoints="true"
     inkscape:snap-center="true"
     inkscape:snap-text-baseline="true"
     inkscape:snap-page="true"
     units="px"
     inkscape:pagecheckerboard="false"
     inkscape:window-width="2560"
     inkscape:window-height="1376"
     inkscape:window-x="0"
     inkscape:window-y="38"
     inkscape:window-maximized="1" />
  <metadata
     id="metadata5">
    <rdf:RDF>
      <cc:Work
         rdf:about="">
        <dc:format>image/svg+xml</dc:format>
        <dc:type
           rdf:resource="http://purl.org/dc/dcmitype/StillImage" />
        <dc:title />
      </cc:Work>
    </rdf:RDF>
  </metadata>
  <g
     inkscape:label="Layer 1"
     inkscape:groupmode="layer"
     id="layer1">
    <g
       id="g64"
       transform="translate(-3.9744199,218.49435)">
      <g
         transform="translate(0,-291.17917)"
         id="g86">
        <rect
           style="stroke-width:0.264583"
           id="pr0gramm-logo-background"
           fill="#d23c22"
           x="3.9744198"
           y="72.684822"
           width="5.8208332"
           height="5.8208332"
           rx="0.52916664" />
        <g
           id="pr0gramm-logo-sign"
           transform="matrix(0.26458333,0,0,0.26458333,4.7681698,73.743154)"
           fill="#ffffff">
          <rect
             x="8"
             y="10"
             width="7"
             height="2"
             rx="1"
             id="rect12" />
          <path
             d="M 2,9.7 C 2.4,9.3 2.9,9 3.3,8.6 3.8,8.2 4.2,7.8 4.7,7.5 5.1,7.1 5.5,6.8 5.8,6.5 5.5,6.3 5.2,6 4.7,5.6 4.3,5.2 3.9,4.8 3.4,4.4 2.9,4 2.5,3.7 2,3.3 1.6,2.9 1.2,2.6 1,2.4 0.7,2.1 0.6,1.8 0.6,1.5 0.6,1.2 0.7,0.9 0.9,0.7 1.1,0.5 1.3,0.4 1.6,0.4 1.8,0.4 1.9,0.5 2.2,0.6 2.2,0.6 2.4,0.8 2.7,1 3,1.3 3.4,1.6 3.8,2 4.2,2.3 4.6,2.7 5.1,3.1 5.6,3.5 6,3.9 6.4,4.2 6.8,4.5 7.2,4.8 7.5,5.1 7.8,5.4 8,5.5 8.1,5.6 8.4,5.9 8.5,6.2 8.5,6.6 8.5,6.9 8.4,7.2 8.1,7.5 7.7,7.8 7.2,8.2 6.7,8.6 6.2,9 5.7,9.5 5.1,9.9 4.6,10.3 4.1,10.8 3.5,11.2 3,11.6 2.6,12 2.1,12.3 1.9,12.4 1.7,12.5 1.5,12.5 1.2,12.5 1,12.4 0.8,12.2 0.6,12 0.5,11.8 0.5,11.5 0.5,11.2 0.6,10.9 0.8,10.6 1.1,10.3 1.5,10 2,9.7 Z"
             id="path14" />
        </g>
        <path
           id="path39"
           style="font-style:normal;font-variant:normal;font-weight:normal;font-stretch:normal;font-size:10.5833px;line-height:1.25;font-family:'Casper Bold';-inkscape-font-specification:'Casper Bold, ';white-space:pre;fill:#ffffff;fill-opacity:1;stroke:none;stroke-width:0.547425"
           d="m 11.740019,77.682485 v -4.026532 h 1.992987 q 0.283884,0 0.50404,0.0927 0.220156,0.09269 0.364995,0.260706 0.144839,0.162224 0.220155,0.393965 0.07532,0.22595 0.07532,0.504042 0,0.278087 -0.07532,0.521417 -0.06952,0.243331 -0.214362,0.42293 -0.139045,0.173808 -0.359201,0.278092 -0.220155,0.09849 -0.515627,0.09849 h -1.338314 v 1.454186 z m 0.654673,-3.423998 v 1.355694 h 1.112365 q 0.382375,0 0.556182,-0.168016 0.179601,-0.173808 0.179601,-0.538798 0,-0.347615 -0.191188,-0.49825 -0.185394,-0.15063 -0.544595,-0.15063 z" />
        <path
           id="path41"
           style="font-style:normal;font-variant:normal;font-weight:normal;font-stretch:normal;font-size:10.5833px;line-height:1.25;font-family:'Casper Bold';-inkscape-font-specification:'Casper Bold, ';white-space:pre;fill:#ffffff;fill-opacity:1;stroke:none;stroke-width:0.547425"
           d="m 16.676127,76.181948 q -0.06373,-0.08111 -0.16222,-0.115868 -0.09849,-0.03476 -0.196981,-0.03476 H 15.93455 v 1.651166 h -0.654673 v -4.026532 h 1.90029 q 0.254917,0 0.469279,0.08111 0.214362,0.08111 0.364994,0.237533 0.156427,0.150635 0.24333,0.364996 0.0869,0.208569 0.0869,0.46928 0,0.521423 -0.266504,0.857449 -0.260711,0.330234 -0.74737,0.364996 l 0.76475,0.967525 q 0.0927,0.115868 0.168014,0.150629 0.07532,0.03476 0.220155,0.03476 v 0.49825 q -0.05794,0.02896 -0.139045,0.04637 -0.08111,0.02316 -0.150633,0.02316 -0.173807,0 -0.312853,-0.115873 -0.139045,-0.121666 -0.237536,-0.249123 z M 15.93455,75.428784 h 1.083397 q 0.370788,0 0.521421,-0.133249 0.150633,-0.139046 0.150633,-0.486661 0,-0.278092 -0.139046,-0.411341 -0.133252,-0.139046 -0.463485,-0.139046 h -1.15292 z" />
        <path
           id="path43"
           style="font-style:normal;font-variant:normal;font-weight:normal;font-stretch:normal;font-size:10.5833px;line-height:1.25;font-family:'Casper Bold';-inkscape-font-specification:'Casper Bold, ';white-space:pre;fill:#ffffff;fill-opacity:1;stroke:none;stroke-width:0.547425"
           d="m 21.142964,75.677907 q 0,-0.202772 -0.02317,-0.446103 -0.01738,-0.24333 -0.0927,-0.451899 -0.07532,-0.214361 -0.231743,-0.353407 -0.150632,-0.144838 -0.411343,-0.144838 -0.26071,0 -0.417136,0.139046 -0.150633,0.133249 -0.231743,0.341818 -0.07532,0.208569 -0.09849,0.457691 -0.02317,0.243331 -0.02317,0.457692 0,0.208569 0.01738,0.463488 0.02317,0.254914 0.09849,0.475072 0.08111,0.214361 0.231742,0.364996 0.150633,0.144838 0.417138,0.144838 0.266504,0 0.417136,-0.144838 0.150633,-0.150635 0.225949,-0.364996 0.08111,-0.220158 0.09849,-0.46928 0.02317,-0.254914 0.02317,-0.46928 z m -0.764751,-2.021954 q 0.295472,0 0.515627,0.0927 0.220156,0.0869 0.376582,0.237533 0.156427,0.150635 0.254917,0.353407 0.09849,0.202777 0.150633,0.428727 0.05794,0.220153 0.07532,0.457691 0.02317,0.231742 0.02317,0.451895 0,0.330234 -0.05214,0.701022 -0.05214,0.364995 -0.208568,0.672057 -0.150633,0.301265 -0.428725,0.504037 -0.272297,0.196985 -0.718402,0.196985 -0.446104,0 -0.718402,-0.202777 -0.272298,-0.202777 -0.42293,-0.509834 -0.150633,-0.307056 -0.202775,-0.672052 -0.04635,-0.364996 -0.04635,-0.689438 0,-0.336027 0.05214,-0.689433 0.05214,-0.359199 0.202775,-0.654672 0.150632,-0.295473 0.42293,-0.486661 0.278091,-0.191188 0.724196,-0.191188 z" />
        <path
           id="path45"
           style="font-style:normal;font-variant:normal;font-weight:normal;font-stretch:normal;font-size:10.5833px;line-height:1.25;font-family:'Casper Bold';-inkscape-font-specification:'Casper Bold, ';white-space:pre;fill:#ffffff;fill-opacity:1;stroke:none;stroke-width:0.547425"
           d="m 24.033947,74.264279 v 3.418206 h -0.654674 v -3.418206 h -1.274584 v -0.608326 h 3.267571 l -0.191187,0.608326 z" />
        <path
           id="path47"
           style="font-style:normal;font-variant:normal;font-weight:normal;font-stretch:normal;font-size:10.5833px;line-height:1.25;font-family:'Casper Bold';-inkscape-font-specification:'Casper Bold, ';white-space:pre;fill:#ffffff;fill-opacity:1;stroke:none;stroke-width:0.547425"
           d="m 27.625952,77.752008 q -0.48666,0 -0.857448,-0.150635 -0.364995,-0.156427 -0.608325,-0.434519 -0.243329,-0.278092 -0.370788,-0.660463 -0.121664,-0.382377 -0.121664,-0.840068 v -0.156427 q 0,-0.42293 0.144838,-0.776336 0.14484,-0.359205 0.40555,-0.608327 0.260711,-0.254914 0.619912,-0.39396 0.359201,-0.144843 0.787925,-0.144843 0.428724,0 0.787925,0.144843 0.359201,0.139046 0.614118,0.39396 0.26071,0.249122 0.405549,0.608327 0.14484,0.353406 0.14484,0.776336 v 0.156427 q 0,0.457691 -0.121665,0.840068 -0.121665,0.382371 -0.370789,0.660463 -0.243329,0.278092 -0.608324,0.434519 -0.364995,0.150635 -0.851654,0.150635 z m 0,-3.557252 q -0.637292,0 -0.961732,0.359199 -0.318646,0.359204 -0.318646,0.96753 v 0.133249 q 0,0.318645 0.06373,0.590946 0.06373,0.272295 0.214362,0.475072 0.150633,0.19698 0.388169,0.312853 0.24333,0.110077 0.602531,0.110077 0.370788,0 0.614118,-0.104285 0.249123,-0.110076 0.393963,-0.307056 0.150632,-0.196986 0.214361,-0.469281 0.06373,-0.278092 0.06373,-0.608326 v -0.133249 q 0,-0.608326 -0.32444,-0.96753 -0.318646,-0.359199 -0.950145,-0.359199 z" />
        <path
           id="path49"
           style="font-style:normal;font-variant:normal;font-weight:normal;font-stretch:normal;font-size:10.5833px;line-height:1.25;font-family:'Casper Bold';-inkscape-font-specification:'Casper Bold, ';white-space:pre;fill:#ffffff;fill-opacity:1;stroke:none;stroke-width:0.547425"
           d="m 30.151937,77.682485 v -4.026532 h 0.799512 l 1.877115,3.018448 v -3.018448 h 0.654673 v 4.026532 H 32.712693 L 30.80661,74.594513 v 3.087972 z" />
      </g>
    </g>
  </g>
</svg>
